<mxfile host="app.diagrams.net" modified="2021-12-31T06:45:13.756Z" agent="5.0 (Macintosh; Intel Mac OS X 10_15_7) AppleWebKit/537.36 (KHTML, like Gecko) Chrome/96.0.4664.110 Safari/537.36" etag="CjQmuH6k7m79KuWOXlts" version="16.1.2" type="github">
  <diagram name="Page-1" id="b5b7bab2-c9e2-2cf4-8b2a-24fd1a2a6d21">
    <mxGraphModel dx="1835" dy="2298" grid="1" gridSize="10" guides="1" tooltips="1" connect="1" arrows="1" fold="1" page="1" pageScale="1" pageWidth="827" pageHeight="1169" background="none" math="0" shadow="0">
      <root>
        <mxCell id="0" />
        <mxCell id="1" parent="0" />
        <mxCell id="u8LD8zYDMfLLZws3WKsQ-1" value="" style="rounded=0;whiteSpace=wrap;html=1;" vertex="1" parent="1">
          <mxGeometry x="10" y="-360" width="430" height="220" as="geometry" />
        </mxCell>
        <mxCell id="u8LD8zYDMfLLZws3WKsQ-2" value="" style="rounded=0;whiteSpace=wrap;html=1;" vertex="1" parent="1">
          <mxGeometry x="10" y="-510" width="600" height="120" as="geometry" />
        </mxCell>
        <mxCell id="u8LD8zYDMfLLZws3WKsQ-3" value="" style="rounded=0;whiteSpace=wrap;html=1;" vertex="1" parent="1">
          <mxGeometry x="10" y="-690" width="600" height="150" as="geometry" />
        </mxCell>
        <mxCell id="u8LD8zYDMfLLZws3WKsQ-4" value="推荐业务" style="rounded=0;whiteSpace=wrap;html=1;" vertex="1" parent="1">
          <mxGeometry x="20" y="-630" width="120" height="60" as="geometry" />
        </mxCell>
        <mxCell id="u8LD8zYDMfLLZws3WKsQ-5" value="音乐馆" style="rounded=0;whiteSpace=wrap;html=1;" vertex="1" parent="1">
          <mxGeometry x="170" y="-630" width="120" height="60" as="geometry" />
        </mxCell>
        <mxCell id="u8LD8zYDMfLLZws3WKsQ-6" value="播客" style="rounded=0;whiteSpace=wrap;html=1;" vertex="1" parent="1">
          <mxGeometry x="320" y="-630" width="120" height="60" as="geometry" />
        </mxCell>
        <mxCell id="u8LD8zYDMfLLZws3WKsQ-7" value="……" style="rounded=0;whiteSpace=wrap;html=1;" vertex="1" parent="1">
          <mxGeometry x="470" y="-630" width="120" height="60" as="geometry" />
        </mxCell>
        <mxCell id="u8LD8zYDMfLLZws3WKsQ-8" value="Shelf-Niche-Card 框架" style="rounded=0;whiteSpace=wrap;html=1;" vertex="1" parent="1">
          <mxGeometry x="234" y="-500" width="180" height="30" as="geometry" />
        </mxCell>
        <mxCell id="u8LD8zYDMfLLZws3WKsQ-9" value="数据解析" style="rounded=0;whiteSpace=wrap;html=1;" vertex="1" parent="1">
          <mxGeometry x="20" y="-460" width="120" height="60" as="geometry" />
        </mxCell>
        <mxCell id="u8LD8zYDMfLLZws3WKsQ-10" value="持久化" style="rounded=0;whiteSpace=wrap;html=1;" vertex="1" parent="1">
          <mxGeometry x="460" y="-460" width="120" height="60" as="geometry" />
        </mxCell>
        <mxCell id="u8LD8zYDMfLLZws3WKsQ-11" value="布局引擎" style="rounded=0;whiteSpace=wrap;html=1;" vertex="1" parent="1">
          <mxGeometry x="170" y="-460" width="120" height="60" as="geometry" />
        </mxCell>
        <mxCell id="u8LD8zYDMfLLZws3WKsQ-12" value="网络请求" style="rounded=0;whiteSpace=wrap;html=1;" vertex="1" parent="1">
          <mxGeometry x="25" y="-290" width="120" height="60" as="geometry" />
        </mxCell>
        <mxCell id="u8LD8zYDMfLLZws3WKsQ-13" value="图片加载" style="rounded=0;whiteSpace=wrap;html=1;" vertex="1" parent="1">
          <mxGeometry x="165" y="-290" width="120" height="60" as="geometry" />
        </mxCell>
        <mxCell id="u8LD8zYDMfLLZws3WKsQ-14" value="数据存储" style="rounded=0;whiteSpace=wrap;html=1;" vertex="1" parent="1">
          <mxGeometry x="305" y="-290" width="120" height="60" as="geometry" />
        </mxCell>
        <mxCell id="u8LD8zYDMfLLZws3WKsQ-15" value="卡片管理" style="rounded=0;whiteSpace=wrap;html=1;" vertex="1" parent="1">
          <mxGeometry x="310" y="-460" width="120" height="60" as="geometry" />
        </mxCell>
        <mxCell id="u8LD8zYDMfLLZws3WKsQ-16" value="业务场景（组件）" style="rounded=0;whiteSpace=wrap;html=1;" vertex="1" parent="1">
          <mxGeometry x="344" y="-680" width="140" height="30" as="geometry" />
        </mxCell>
        <mxCell id="u8LD8zYDMfLLZws3WKsQ-18" value="基础服务" style="rounded=0;whiteSpace=wrap;html=1;" vertex="1" parent="1">
          <mxGeometry x="157" y="-340" width="136" height="30" as="geometry" />
        </mxCell>
      </root>
    </mxGraphModel>
  </diagram>
</mxfile>
